<svg xmlns="http://www.w3.org/2000/svg" width="432" height="493.728" viewBox="0 0 432 493.728"><g transform="translate(-30.864)"><path d="M404.936,92.136c-1.768-.168-39.52-2.968-39.52-2.968S339.176,63,336.3,60.12c-2.88-2.9-8.5-2.032-10.7-1.368-.312.088-5.72,1.776-14.672,4.536-8.768-25.336-24.216-48.616-51.408-48.616-.752,0-1.528.032-2.312.08C249.488,4.488,239.9,0,231.624,0,168.272,0,138,79.608,128.512,120.064c-24.624,7.648-42.128,13.1-44.336,13.824-13.768,4.336-14.192,4.768-15.976,17.776-1.376,9.848-37.336,289.312-37.336,289.312L311.04,493.728l151.824-33.016S409.576,98.624,409.24,96.136A4.75,4.75,0,0,0,404.936,92.136ZM255.136,77.9c0,.952-.016,1.848-.016,2.752C239.7,85.464,222.96,90.664,206.152,95.9c9.432-36.56,27.1-54.24,42.56-60.9C252.592,44.808,255.136,58.9,255.136,77.9ZM229.872,17.088a14.188,14.188,0,0,1,8.144,2.76C217.7,29.44,195.952,53.64,186.752,101.936c-13.432,4.176-26.552,8.272-38.7,12.048C158.816,77.128,184.368,17.088,229.872,17.088Zm10.92,215.3s-16.4-8.792-36.488-8.792c-29.488,0-30.976,18.592-30.976,23.264,0,25.56,66.3,35.36,66.3,95.224,0,47.1-29.712,77.424-69.808,77.424-48.1,0-72.7-30.088-72.7-30.088l12.872-42.76s25.28,21.832,46.64,21.832c13.92,0,19.592-11.04,19.592-19.1,0-33.344-54.392-34.832-54.392-89.624,0-46.088,32.928-90.728,99.424-90.728,25.592,0,38.264,7.384,38.264,7.384Zm30.952-156.9c0-1.688.016-3.336.016-5.152,0-15.728-2.184-28.408-5.672-38.456C280.1,33.632,289.44,49.664,295.448,68.1,288.416,70.312,280.416,72.792,271.744,75.488Z" fill="#1f9cfe"/><path d="M404.936,92.136c-1.768-.168-39.52-2.968-39.52-2.968S339.176,63,336.3,60.12c-2.88-2.9-8.5-2.032-10.7-1.368-.312.088-5.72,1.776-14.672,4.536-8.768-25.336-24.216-48.616-51.408-48.616-.752,0-1.528.032-2.312.08C249.488,4.488,239.9,0,231.624,0c-63.352,0-78.984,79.608-88.472,120.064-24.624,7.648-43.52,49.752-45.752,50.456-13.752,4.336-14.176,4.768-15.968,17.784-1.384,9.84-50.568,252.672-50.568,252.672L311.04,493.728l151.824-33.016S409.576,98.624,409.24,96.136A4.75,4.75,0,0,0,404.936,92.136ZM255.136,77.9c0,.952-.016,1.848-.016,2.752C239.7,85.464,222.96,90.664,206.152,95.9c9.432-36.56,27.1-54.24,42.56-60.9C252.592,44.808,255.136,58.9,255.136,77.9ZM229.872,17.088a14.188,14.188,0,0,1,8.144,2.76C217.7,29.44,195.952,53.64,186.752,101.936c-13.432,4.176-26.552,8.272-38.7,12.048C158.816,77.128,184.368,17.088,229.872,17.088Zm10.92,215.3s-16.4-8.792-36.488-8.792c-29.488,0-30.976,18.592-30.976,23.264,0,25.56,66.3,35.36,66.3,95.224,0,47.1-29.712,77.424-69.808,77.424-48.1,0-72.7-30.088-72.7-30.088l12.872-42.76s25.28,21.832,46.64,21.832c13.92,0,19.592-11.04,19.592-19.1,0-33.344-54.392-34.832-54.392-89.624,0-46.088,32.928-90.728,99.424-90.728,25.592,0,38.264,7.384,38.264,7.384Zm30.952-156.9c0-1.688.016-3.336.016-5.152,0-15.728-2.184-28.408-5.672-38.456C280.1,33.632,289.44,49.664,295.448,68.1,288.416,70.312,280.416,72.792,271.744,75.488Z" fill="#007ee0"/><path d="M311.04,493.72l151.824-33.008S409.576,98.624,409.24,96.136a4.735,4.735,0,0,0-4.3-4c-1.768-.168-39.52-2.968-39.52-2.968S339.176,63,336.3,60.12c-1.536-1.552-3.832-1.992-6-2.008-5.76,9.76-4.568,28.3-4.568,28.3L307.88,493.12Z" fill="#007ee0"/><path d="M259.528,14.68c-.752,0-1.528.032-2.312.08C249.488,4.5,239.9.008,231.624.008c-63.1,0-93.392,78.984-103,119.576l19.576-6.072c10.832-36.872,36.36-96.424,81.672-96.424a14.188,14.188,0,0,1,8.144,2.76c-20.256,9.56-41.952,33.672-51.184,81.7l19.44-6C215.728,59.224,233.32,41.64,248.728,35c3.872,9.816,6.424,23.9,6.424,42.9,0,.864,0,1.688-.016,2.512l16.624-5.144c0-1.6.016-3.2.016-4.936,0-15.728-2.184-28.408-5.672-38.456,13.968,1.744,23.3,17.7,29.3,36.064l15.5-4.808C302.112,37.872,286.672,14.68,259.528,14.68Z" fill="#0166b5"/><path d="M371.752,89.648c-3.792-.3-6.344-.48-6.344-.48S339.168,63,336.3,60.12c-1.536-1.552-3.832-1.992-6-2.008-5.76,9.76-4.568,28.3-4.568,28.3L307.872,493.12l3.168.6,80.784-17.568Z" fill="#016abc"/></g></svg>